<?xml version="1.0" encoding="UTF-8"?>
<svg xmlns="http://www.w3.org/2000/svg" style="display: none;">
  <symbol id="done" viewBox="0 0 16 16">
	 <path d="M8 15A7 7 0 1 1 8 1a7 7 0 0 1 0 14zm0 1A8 8 0 1 0 8 0a8 8 0 0 0 0 16z" /><path d="M10.97 4.97a.235.235 0 0 0-.02.022L7.477 9.417 5.384 7.323a.75.75 0 0 0-1.06 1.06L6.97 11.03a.75.75 0 0 0 1.079-.02l3.992-4.99a.75.75 0 0 0-1.071-1.05z" />
  </symbol>
  <symbol id="smog" viewBox="0 0 16 16">
	 <path fill="white" d="M11.473 11a4.5 4.5 0 0 0-8.72-.99A3 3 0 0 0 3 16h8.5a2.5 2.5 0 0 0 0-5h-.027z" /><path fill="yellow"	d="M10.5 1.5a.5.5 0 0 0-1 0v1a.5.5 0 0 0 1 0v-1zm3.743 1.964a.5.5 0 1 0-.707-.707l-.708.707a.5.5 0 0 0 .708.708l.707-.708zm-7.779-.707a.5.5 0 0 0-.707.707l.707.708a.5.5 0 1 0 .708-.708l-.708-.707zm1.734 3.374a2 2 0 1 1 3.296 2.198c.199.281.372.582.516.898a3 3 0 1 0-4.84-3.225c.352.011.696.055 1.028.129zm4.484 4.074c.6.215 1.125.59 1.522 1.072a.5.5 0 0 0 .039-.742l-.707-.707a.5.5 0 0 0-.854.377zM14.5 6.5a.5.5 0 0 0 0 1h1a.5.5 0 0 0 0-1h-1z" />
  </symbol>
  <symbol id="dollar" viewBox="0 0 24 24">
	 <circle cx="12" cy="12" r="12" fill="black" /><path fill="white" d="M7 14.3837C7.17806 15.8126 8.82026 16.8266 11.3203 16.9577V18H12.5751V16.9577C15.3061 16.8043 17 15.7251 17 14.1291C17 12.7663 15.8607 11.9777 13.4437 11.5337L12.5751 11.3734V8.11457C13.9249 8.20886 14.8357 8.72657 15.0654 9.49971H16.834C16.6343 8.12829 14.9812 7.14429 12.5751 7.03543V6H11.3203V7.05686C8.98749 7.254 7.38619 8.31857 7.38619 9.762C7.38619 11.0083 8.54836 11.8903 10.5876 12.2623L11.3215 12.4011V15.8563C9.93912 15.7106 8.98749 15.1706 8.7577 14.3837H7ZM11.0796 11.0957C9.82483 10.8703 9.15472 10.3886 9.15472 9.71057C9.15472 8.90143 10.0017 8.304 11.3203 8.14371V11.1394L11.0796 11.0957ZM12.9937 12.7003C14.5421 12.9771 15.2218 13.4366 15.2218 14.2166C15.2218 15.1569 14.2281 15.7834 12.5751 15.8786V12.6257L12.9937 12.6994V12.7003Z" />
  <symbol/>
  <symbol id="fuel" viewBox="0 0 16 16">
	 <path d="M1 2a2 2 0 0 1 2-2h6a2 2 0 0 1 2 2v8a2 2 0 0 1 2 2v.5a.5.5 0 0 0 1 0V8h-.5a.5.5 0 0 1-.5-.5V4.375a.5.5 0 0 1 .5-.5h1.495c-.011-.476-.053-.894-.201-1.222a.97.97 0 0 0-.394-.458c-.184-.11-.464-.195-.9-.195a.5.5 0 0 1 0-1c.564 0 1.034.11 1.412.336.383.228.634.551.794.907.295.655.294 1.465.294 2.081V7.5a.5.5 0 0 1-.5.5H15v4.5a1.5 1.5 0 0 1-3 0V12a1 1 0 0 0-1-1v4h.5a.5.5 0 0 1 0 1H.5a.5.5 0 0 1 0-1H1V2Zm2.5 0a.5.5 0 0 0-.5.5v5a.5.5 0 0 0 .5.5h5a.5.5 0 0 0 .5-.5v-5a.5.5 0 0 0-.5-.5h-5Z" />
  <symbol/>
  <symbol id="lock" viewBox="0 0 16 16">
	 <path d="M8 1a2 2 0 0 1 2 2v4H6V3a2 2 0 0 1 2-2zm3 6V3a3 3 0 0 0-6 0v4a2 2 0 0 0-2 2v5a2 2 0 0 0 2 2h6a2 2 0 0 0 2-2V9a2 2 0 0 0-2-2z" />
  <symbol/>
  <symbol id="light" viewBox="0 0 16 16">
	 <path d="M2 6a6 6 0 1 1 10.174 4.31c-.203.196-.359.4-.453.619l-.762 1.769A.5.5 0 0 1 10.5 13h-5a.5.5 0 0 1-.46-.302l-.761-1.77a1.964 1.964 0 0 0-.453-.618A5.984 5.984 0 0 1 2 6zm3 8.5a.5.5 0 0 1 .5-.5h5a.5.5 0 0 1 0 1l-.224.447a1 1 0 0 1-.894.553H6.618a1 1 0 0 1-.894-.553L5.5 15a.5.5 0 0 1-.5-.5z" />
  <symbol/>
  <symbol id="key" viewBox="0 0 16 16">
	 <path d="M3.5 11.5a3.5 3.5 0 1 1 3.163-5H14L15.5 8 14 9.5l-1-1-1 1-1-1-1 1-1-1-1 1H6.663a3.5 3.5 0 0 1-3.163 2zM2.5 9a1 1 0 1 0 0-2 1 1 0 0 0 0 2z" />
  <symbol/>
  <symbol id="signal" viewBox="0 0 16 16">
	 <path d="m3.86 8.753 5.482 4.796c.646.566 1.658.106 1.658-.753V3.204a1 1 0 0 0-1.659-.753l-5.48 4.796a1 1 0 0 0 0 1.506z" />
  <symbol/>
</svg>
